<?xml version="1.0" encoding="utf-8" ?>
<svg baseProfile="full" height="100%" version="1.1" viewBox="0 0 600 600" width="100%" xmlns="http://www.w3.org/2000/svg" xmlns:ev="http://www.w3.org/2001/xml-events" xmlns:xlink="http://www.w3.org/1999/xlink"><defs /><rect fill="#eaeeef" height="600" width="600" x="0" y="0" /><polygon fill="#3c7e85" points="406.9908846695718,341.9833236946039 443.3684161890718,248.22905414698945 412.6144917592821,198.24078008596507 397.4433322130681,194.46781332560903 366.51288654721105,223.89799862493376 384.48547883764644,320.5724270477533 406.9908846695718,341.9833236946039" stroke="#eaeeef" stroke-width="1.0" /><polygon fill="#4b78a8" points="129.4923791417821,380.7688966821021 91.30303335662072,383.08106773458866 65.02852820345191,430.8873276806689 115.43200151029045,456.1750274748382 136.36892519271123,389.56852158794476 129.4923791417821,380.7688966821021" stroke="#eaeeef" stroke-width="1.0" /><polygon fill="#4ba0a8" points="130.58061802689642,207.17425234945495 120.80320904552872,190.95430109323516 0.0,205.97300896657887 0.0,274.9613110084679 130.58061802689642,207.17425234945495" stroke="#eaeeef" stroke-width="1.0" /><polygon fill="#4ba0a8" points="192.36317902310856,284.35889768021286 200.13867177706675,240.5846233892557 191.22725675313194,233.91948586782334 149.46016767179256,221.2604680443107 142.05386324107744,219.5664931645364 100.6168410351895,292.811618790924 132.65955008991682,353.4576285471349 180.90002139251123,312.0548749368279 192.36317902310856,284.35889768021286" stroke="#eaeeef" stroke-width="1.0" /><polygon fill="#4ba89d" points="222.8513503218064,241.76625612772403 293.118228099606,175.70258191298305 297.45166693178527,128.58803115653066 227.3720410679128,124.84843051051018 191.22725675313194,233.91948586782334 200.13867177706675,240.5846233892557 222.8513503218064,241.76625612772403" stroke="#eaeeef" stroke-width="1.0" /><polygon fill="#3c5f85" points="591.570062376055,126.78882464611617 497.8138680986077,70.96418080934595 544.2096568183053,139.46671095088226 591.570062376055,126.78882464611617" stroke="#eaeeef" stroke-width="1.0" /><polygon fill="#3c5f85" points="149.46016767179256,221.2604680443107 207.36609941792125,116.32146601979665 118.70787891960448,174.41637228257653 120.80320904552872,190.95430109323516 130.58061802689642,207.17425234945495 142.05386324107744,219.5664931645364 149.46016767179256,221.2604680443107" stroke="#eaeeef" stroke-width="1.0" /><polygon fill="#3c857c" points="23.820183683691756,129.58060094124747 116.12927645242537,168.3063316649386 119.19032005215773,90.89285875218341 23.820183683691756,129.58060094124747" stroke="#eaeeef" stroke-width="1.0" /><polygon fill="#3c7e85" points="189.5758941796946,454.5864899729341 139.80285928265567,487.7360374519121 147.27862600282282,529.5923677721354 216.7421829488472,480.54423572759293 189.5758941796946,454.5864899729341" stroke="#eaeeef" stroke-width="1.0" /><polygon fill="#3c5f85" points="326.7820276801272,218.84868028359298 293.118228099606,175.70258191298305 222.8513503218064,241.76625612772403 269.3318633776503,277.48236699849764 298.8040506777853,275.4982042337215 326.7820276801272,218.84868028359298" stroke="#eaeeef" stroke-width="1.0" /><polygon fill="#3c6e85" points="600.0,293.6485236523762 600.0,229.10117742360052 539.8753534881387,222.62350751398304 514.0569100695534,245.87917943209067 539.4777061840869,288.9568027445455 600.0,293.6485236523762" stroke="#eaeeef" stroke-width="1.0" /><polygon fill="#3c857c" points="453.8050162546338,428.72728732641593 517.0412573088408,399.7330476930349 522.3429786398718,360.00896659866527 470.65089731337383,339.184949628086 411.8870946999461,353.41201571400785 398.21290203566883,403.9277541109127 444.0626523895587,428.01930835104946 453.8050162546338,428.72728732641593" stroke="#eaeeef" stroke-width="1.0" /><polygon fill="#3c857c" points="591.570062376055,126.78882464611617 544.2096568183053,139.46671095088226 497.2396184769238,159.64950984057938 539.8753534881387,222.62350751398304 600.0,229.10117742360052 600.0,125.32527333904028 591.570062376055,126.78882464611617" stroke="#eaeeef" stroke-width="1.0" /><polygon fill="#3c4f85" points="191.22725675313194,233.91948586782334 227.3720410679128,124.84843051051018 210.18706904283485,114.00314875825144 207.36609941792125,116.32146601979665 149.46016767179256,221.2604680443107 191.22725675313194,233.91948586782334" stroke="#eaeeef" stroke-width="1.0" /><polygon fill="#4ba0a8" points="124.21907049749183,72.59435494313735 156.76452703321556,27.877311372419346 160.09400301518312,0.0 0.0,0.0 0.0,80.81731232429965 124.21907049749183,72.59435494313735" stroke="#eaeeef" stroke-width="1.0" /><polygon fill="#4b78a8" points="130.58061802689642,207.17425234945495 0.0,274.9613110084679 0.0,293.2694003469475 100.6168410351895,292.811618790924 142.05386324107744,219.5664931645364 130.58061802689642,207.17425234945495" stroke="#eaeeef" stroke-width="1.0" /><polygon fill="#3c857c" points="192.36317902310856,284.35889768021286 180.90002139251123,312.0548749368279 226.0744656100845,354.7159685406449 244.8698249525197,354.9496210578356 252.34371668728107,345.2195956203534 192.36317902310856,284.35889768021286" stroke="#eaeeef" stroke-width="1.0" /><polygon fill="#3c6e85" points="352.6849510616244,309.5859970750455 384.48547883764644,320.5724270477533 366.51288654721105,223.89799862493376 326.7820276801272,218.84868028359298 298.8040506777853,275.4982042337215 344.49096841247314,306.5479423646124 352.6849510616244,309.5859970750455" stroke="#eaeeef" stroke-width="1.0" /><polygon fill="#3c6e85" points="0.0,80.81731232429965 0.0,125.89128502332701 23.820183683691756,129.58060094124747 119.19032005215773,90.89285875218341 124.21907049749183,72.59435494313735 0.0,80.81731232429965" stroke="#eaeeef" stroke-width="1.0" /><polygon fill="#4b78a8" points="514.0569100695534,245.87917943209067 539.8753534881387,222.62350751398304 497.2396184769238,159.64950984057938 490.58896713157645,159.50542407848894 478.92787624745426,237.84067795090846 494.1543660721984,246.76390442796668 514.0569100695534,245.87917943209067" stroke="#eaeeef" stroke-width="1.0" /><polygon fill="#4b8ca8" points="539.4777061840869,288.9568027445455 514.0569100695534,245.87917943209067 494.1543660721984,246.76390442796668 490.06071241609436,315.83478618662696 539.4777061840869,288.9568027445455" stroke="#eaeeef" stroke-width="1.0" /><polygon fill="#4b64a8" points="385.76797172655245,557.0153774461908 375.07940413409773,490.1507944795557 250.76578049977576,521.0752426086489 250.41475343171263,600.0 383.82333862108663,600.0 385.76797172655245,557.0153774461908" stroke="#eaeeef" stroke-width="1.0" /><polygon fill="#3c7e85" points="277.5173267870887,344.47258307442576 291.5592470176014,354.8152817438901 352.6849510616244,309.5859970750455 344.49096841247314,306.5479423646124 277.5173267870887,344.47258307442576" stroke="#eaeeef" stroke-width="1.0" /><polygon fill="#3c4f85" points="486.4879545935114,157.5523339952561 481.1821945584442,148.9962231605534 356.564511449103,96.40913114363386 397.4433322130681,194.46781332560903 412.6144917592821,198.24078008596507 486.4879545935114,157.5523339952561" stroke="#eaeeef" stroke-width="1.0" /><polygon fill="#3c7e85" points="522.3429786398718,360.00896659866527 517.0412573088408,399.7330476930349 526.1781555009705,414.1395223079535 600.0,394.2655505234594 600.0,366.96643202935326 522.3429786398718,360.00896659866527" stroke="#eaeeef" stroke-width="1.0" /><polygon fill="#4b64a8" points="600.0,366.96643202935326 600.0,293.6485236523762 539.4777061840869,288.9568027445455 490.06071241609436,315.83478618662696 470.65089731337383,339.184949628086 522.3429786398718,360.00896659866527 600.0,366.96643202935326" stroke="#eaeeef" stroke-width="1.0" /><polygon fill="#4b8ca8" points="258.48872808072946,340.1937182519533 269.3318633776503,277.48236699849764 222.8513503218064,241.76625612772403 200.13867177706675,240.5846233892557 192.36317902310856,284.35889768021286 252.34371668728107,345.2195956203534 258.48872808072946,340.1937182519533" stroke="#eaeeef" stroke-width="1.0" /><polygon fill="#4ba89d" points="210.18706904283485,114.00314875825144 156.76452703321556,27.877311372419346 124.21907049749183,72.59435494313735 119.19032005215773,90.89285875218341 116.12927645242537,168.3063316649386 118.70787891960448,174.41637228257653 207.36609941792125,116.32146601979665 210.18706904283485,114.00314875825144" stroke="#eaeeef" stroke-width="1.0" /><polygon fill="#3c4f85" points="398.21290203566883,403.9277541109127 375.8542297720358,424.95836101024133 374.8951457674223,426.2868820560951 375.07940413409773,490.1507944795557 385.76797172655245,557.0153774461908 486.56208965537616,498.3686781313748 444.0626523895587,428.01930835104946 398.21290203566883,403.9277541109127" stroke="#eaeeef" stroke-width="1.0" /><polygon fill="#4b64a8" points="298.8040506777853,275.4982042337215 269.3318633776503,277.48236699849764 258.48872808072946,340.1937182519533 277.5173267870887,344.47258307442576 344.49096841247314,306.5479423646124 298.8040506777853,275.4982042337215" stroke="#eaeeef" stroke-width="1.0" /><polygon fill="#3c5f85" points="486.4879545935114,157.5523339952561 412.6144917592821,198.24078008596507 443.3684161890718,248.22905414698945 478.92787624745426,237.84067795090846 490.58896713157645,159.50542407848894 486.4879545935114,157.5523339952561" stroke="#eaeeef" stroke-width="1.0" /><polygon fill="#4b78a8" points="509.8921562151252,439.8933795190827 526.1781555009705,414.1395223079535 517.0412573088408,399.7330476930349 453.8050162546338,428.72728732641593 509.8921562151252,439.8933795190827" stroke="#eaeeef" stroke-width="1.0" /><polygon fill="#4ba89d" points="526.1781555009705,414.1395223079535 509.8921562151252,439.8933795190827 537.3555126341785,462.5120154826416 600.0,431.4045931579117 600.0,394.2655505234594 526.1781555009705,414.1395223079535" stroke="#eaeeef" stroke-width="1.0" /><polygon fill="#4ba89d" points="281.0752018409648,436.5926124784697 254.93794136999196,409.605447802866 176.0155430156095,414.23551761297097 189.5758941796946,454.5864899729341 216.7421829488472,480.54423572759293 242.70144143970498,486.75590140724796 281.0752018409648,436.5926124784697" stroke="#eaeeef" stroke-width="1.0" /><polygon fill="#3c857c" points="115.37218799479211,456.4587503154858 115.43200151029045,456.1750274748382 65.02852820345191,430.8873276806689 0.0,501.94766718126004 0.0,518.8286527866491 115.37218799479211,456.4587503154858" stroke="#eaeeef" stroke-width="1.0" /><polygon fill="#4b64a8" points="91.30303335662072,383.08106773458866 0.0,359.9848395773734 0.0,501.94766718126004 65.02852820345191,430.8873276806689 91.30303335662072,383.08106773458866" stroke="#eaeeef" stroke-width="1.0" /><polygon fill="#4b78a8" points="156.76452703321556,27.877311372419346 210.18706904283485,114.00314875825144 227.3720410679128,124.84843051051018 297.45166693178527,128.58803115653066 345.4490358448004,82.74381619169692 358.099478613272,0.0 160.09400301518312,0.0 156.76452703321556,27.877311372419346" stroke="#eaeeef" stroke-width="1.0" /><polygon fill="#3c6e85" points="497.2396184769238,159.64950984057938 544.2096568183053,139.46671095088226 497.8138680986077,70.96418080934595 473.5616667461439,47.76428437300884 481.1821945584442,148.9962231605534 486.4879545935114,157.5523339952561 490.58896713157645,159.50542407848894 497.2396184769238,159.64950984057938" stroke="#eaeeef" stroke-width="1.0" /><polygon fill="#3c6e85" points="180.90002139251123,312.0548749368279 132.65955008991682,353.4576285471349 129.4923791417821,380.7688966821021 136.36892519271123,389.56852158794476 153.35724561264772,395.30267132387115 226.0744656100845,354.7159685406449 180.90002139251123,312.0548749368279" stroke="#eaeeef" stroke-width="1.0" /><polygon fill="#4ba89d" points="385.76797172655245,557.0153774461908 383.82333862108663,600.0 559.9840327883065,600.0 522.4865261927968,515.6123245706352 486.56208965537616,498.3686781313748 385.76797172655245,557.0153774461908" stroke="#eaeeef" stroke-width="1.0" /><polygon fill="#4ba0a8" points="366.51288654721105,223.89799862493376 397.4433322130681,194.46781332560903 356.564511449103,96.40913114363386 345.4490358448004,82.74381619169692 297.45166693178527,128.58803115653066 293.118228099606,175.70258191298305 326.7820276801272,218.84868028359298 366.51288654721105,223.89799862493376" stroke="#eaeeef" stroke-width="1.0" /><polygon fill="#3c5f85" points="486.56208965537616,498.3686781313748 522.4865261927968,515.6123245706352 537.3555126341785,462.5120154826416 509.8921562151252,439.8933795190827 453.8050162546338,428.72728732641593 444.0626523895587,428.01930835104946 486.56208965537616,498.3686781313748" stroke="#eaeeef" stroke-width="1.0" /><polygon fill="#4b8ca8" points="473.5616667461439,47.76428437300884 459.204658030778,0.0 358.099478613272,0.0 345.4490358448004,82.74381619169692 356.564511449103,96.40913114363386 481.1821945584442,148.9962231605534 473.5616667461439,47.76428437300884" stroke="#eaeeef" stroke-width="1.0" /><polygon fill="#4b8ca8" points="250.76578049977576,521.0752426086489 375.07940413409773,490.1507944795557 374.8951457674223,426.2868820560951 281.0752018409648,436.5926124784697 242.70144143970498,486.75590140724796 250.76578049977576,521.0752426086489" stroke="#eaeeef" stroke-width="1.0" /><polygon fill="#4b78a8" points="244.8698249525197,354.9496210578356 254.93794136999196,409.605447802866 281.0752018409648,436.5926124784697 374.8951457674223,426.2868820560951 375.8542297720358,424.95836101024133 291.5592470176014,354.8152817438901 277.5173267870887,344.47258307442576 258.48872808072946,340.1937182519533 252.34371668728107,345.2195956203534 244.8698249525197,354.9496210578356" stroke="#eaeeef" stroke-width="1.0" /><polygon fill="#3c7e85" points="91.30303335662072,383.08106773458866 129.4923791417821,380.7688966821021 132.65955008991682,353.4576285471349 100.6168410351895,292.811618790924 0.0,293.2694003469475 0.0,359.9848395773734 91.30303335662072,383.08106773458866" stroke="#eaeeef" stroke-width="1.0" /><polygon fill="#3c4f85" points="250.76578049977576,521.0752426086489 242.70144143970498,486.75590140724796 216.7421829488472,480.54423572759293 147.27862600282282,529.5923677721354 128.8051626571808,600.0 250.41475343171263,600.0 250.76578049977576,521.0752426086489" stroke="#eaeeef" stroke-width="1.0" /><polygon fill="#3c4f85" points="473.5616667461439,47.76428437300884 497.8138680986077,70.96418080934595 591.570062376055,126.78882464611617 600.0,125.32527333904028 600.0,0.0 459.204658030778,0.0 473.5616667461439,47.76428437300884" stroke="#eaeeef" stroke-width="1.0" /><polygon fill="#4b64a8" points="136.36892519271123,389.56852158794476 115.43200151029045,456.1750274748382 115.37218799479211,456.4587503154858 139.80285928265567,487.7360374519121 189.5758941796946,454.5864899729341 176.0155430156095,414.23551761297097 153.35724561264772,395.30267132387115 136.36892519271123,389.56852158794476" stroke="#eaeeef" stroke-width="1.0" /><polygon fill="#3c7e85" points="537.3555126341785,462.5120154826416 522.4865261927968,515.6123245706352 559.9840327883065,600.0 600.0,600.0 600.0,431.4045931579117 537.3555126341785,462.5120154826416" stroke="#eaeeef" stroke-width="1.0" /><polygon fill="#4ba89d" points="490.06071241609436,315.83478618662696 494.1543660721984,246.76390442796668 478.92787624745426,237.84067795090846 443.3684161890718,248.22905414698945 406.9908846695718,341.9833236946039 411.8870946999461,353.41201571400785 470.65089731337383,339.184949628086 490.06071241609436,315.83478618662696" stroke="#eaeeef" stroke-width="1.0" /><polygon fill="#4ba0a8" points="147.27862600282282,529.5923677721354 139.80285928265567,487.7360374519121 115.37218799479211,456.4587503154858 0.0,518.8286527866491 0.0,600.0 128.8051626571808,600.0 147.27862600282282,529.5923677721354" stroke="#eaeeef" stroke-width="1.0" /><polygon fill="#3c5f85" points="411.8870946999461,353.41201571400785 406.9908846695718,341.9833236946039 384.48547883764644,320.5724270477533 352.6849510616244,309.5859970750455 291.5592470176014,354.8152817438901 375.8542297720358,424.95836101024133 398.21290203566883,403.9277541109127 411.8870946999461,353.41201571400785" stroke="#eaeeef" stroke-width="1.0" /><polygon fill="#3c4f85" points="226.0744656100845,354.7159685406449 153.35724561264772,395.30267132387115 176.0155430156095,414.23551761297097 254.93794136999196,409.605447802866 244.8698249525197,354.9496210578356 226.0744656100845,354.7159685406449" stroke="#eaeeef" stroke-width="1.0" /><polygon fill="#4b8ca8" points="120.80320904552872,190.95430109323516 118.70787891960448,174.41637228257653 116.12927645242537,168.3063316649386 23.820183683691756,129.58060094124747 0.0,125.89128502332701 0.0,205.97300896657887 120.80320904552872,190.95430109323516" stroke="#eaeeef" stroke-width="1.0" /></svg>