<?xml version="1.0" encoding="utf-8" ?>
<svg baseProfile="full" height="100%" version="1.1" viewBox="0 0 1000 500" width="100%" xmlns="http://www.w3.org/2000/svg" xmlns:ev="http://www.w3.org/2001/xml-events" xmlns:xlink="http://www.w3.org/1999/xlink"><defs /><rect fill="#f1f2ed" height="500" width="1000" x="0" y="0" /><polygon fill="#ffd34e" points="49.68097199980861,55.91637408374961 70.07397714750658,0.0 0.0,0.0 0.0,41.43930631010851 49.68097199980861,55.91637408374961" stroke="#f1f2ed" stroke-width="0.0" /><polygon fill="#bd4932" points="49.68097199980861,55.91637408374961 65.7734203398516,77.10238538939402 160.0386535931197,39.23976758320994 156.29167004214366,0.0 70.07397714750658,0.0 49.68097199980861,55.91637408374961" stroke="#f1f2ed" stroke-width="0.0" /><polygon fill="#db9d36" points="269.6175797156967,0.0 156.29167004214366,0.0 160.0386535931197,39.23976758320994 197.86564692041782,81.97952608498333 252.60713652606282,71.51197077700104 269.6175797156967,0.0" stroke="#f1f2ed" stroke-width="0.0" /><polygon fill="#105a63" points="347.47463894974,86.20447908753741 364.9100782781373,61.904434483408714 348.0499735785086,0.0 269.6175797156967,0.0 252.60713652606282,71.51197077700104 254.40426523643663,72.68835217059095 347.47463894974,86.20447908753741" stroke="#f1f2ed" stroke-width="0.0" /><polygon fill="#fff9d5" points="364.9100782781373,61.904434483408714 438.8144442356473,53.65166027853783 459.74497978131615,0.0 348.0499735785086,0.0 364.9100782781373,61.904434483408714" stroke="#f1f2ed" stroke-width="0.0" /><polygon fill="#105a63" points="522.6422604801547,0.0 459.74497978131615,0.0 438.8144442356473,53.65166027853783 455.65819957898026,81.24375174342069 545.432102880512,90.71106799486718 556.185340621148,73.11497931652104 522.6422604801547,0.0" stroke="#f1f2ed" stroke-width="0.0" /><polygon fill="#bd4932" points="638.3928987775419,0.0 522.6422604801547,0.0 556.185340621148,73.11497931652104 617.2103737424105,56.682180608336324 638.3928987775419,0.0" stroke="#f1f2ed" stroke-width="0.0" /><polygon fill="#ffd34e" points="736.6466326503563,56.19671893135781 705.3076514129745,0.0 638.3928987775419,0.0 617.2103737424105,56.682180608336324 653.4504321925016,98.39934235713967 736.6466326503563,56.19671893135781" stroke="#f1f2ed" stroke-width="0.0" /><polygon fill="#bd4932" points="742.3759554383174,59.391104084227415 808.5140883014451,52.56709923902573 831.8243235264393,0.0 705.3076514129745,0.0 736.6466326503563,56.19671893135781 742.3759554383174,59.391104084227415" stroke="#f1f2ed" stroke-width="0.0" /><polygon fill="#fff9d5" points="841.6413558252433,108.34702457533851 915.6710304493015,86.38743915145955 908.8611253254875,0.0 831.8243235264393,0.0 808.5140883014451,52.56709923902573 841.6413558252433,108.34702457533851" stroke="#f1f2ed" stroke-width="0.0" /><polygon fill="#105a63" points="915.6710304493015,86.38743915145955 927.419934646383,92.58222678026478 1000.0,83.46871179550287 1000.0,0.0 908.8611253254875,0.0 915.6710304493015,86.38743915145955" stroke="#f1f2ed" stroke-width="0.0" /><polygon fill="#db9d36" points="65.7734203398516,77.10238538939402 49.68097199980861,55.91637408374961 0.0,41.43930631010851 0.0,151.6329131217415 46.19394141523451,150.87600091099705 66.34508743113862,132.07276056259246 65.7734203398516,77.10238538939402" stroke="#f1f2ed" stroke-width="0.0" /><polygon fill="#105a63" points="170.66353561749037,149.66007719170256 197.86564692041782,81.97952608498333 160.0386535931197,39.23976758320994 65.7734203398516,77.10238538939402 66.34508743113862,132.07276056259246 159.5505357137807,156.22814516775694 170.66353561749037,149.66007719170256" stroke="#f1f2ed" stroke-width="0.0" /><polygon fill="#bd4932" points="246.05312058589735,192.07762890600236 278.1589740506219,165.9484873223208 254.40426523643663,72.68835217059095 252.60713652606282,71.51197077700104 197.86564692041782,81.97952608498333 170.66353561749037,149.66007719170256 246.05312058589735,192.07762890600236" stroke="#f1f2ed" stroke-width="0.0" /><polygon fill="#fff9d5" points="360.7195438645469,157.10332887313 347.47463894974,86.20447908753741 254.40426523643663,72.68835217059095 278.1589740506219,165.9484873223208 352.08588780281474,166.54613983381574 360.7195438645469,157.10332887313" stroke="#f1f2ed" stroke-width="0.0" /><polygon fill="#db9d36" points="440.294925967836,159.01064021151072 455.65819957898026,81.24375174342069 438.8144442356473,53.65166027853783 364.9100782781373,61.904434483408714 347.47463894974,86.20447908753741 360.7195438645469,157.10332887313 433.3969819379341,163.72245087330458 440.294925967836,159.01064021151072" stroke="#f1f2ed" stroke-width="0.0" /><polygon fill="#ffd34e" points="455.65819957898026,81.24375174342069 440.294925967836,159.01064021151072 528.9657998367086,170.34155796719324 548.7766945733706,147.59087489029568 545.432102880512,90.71106799486718 455.65819957898026,81.24375174342069" stroke="#f1f2ed" stroke-width="0.0" /><polygon fill="#db9d36" points="656.6742335570816,151.7933767058151 653.4504321925016,98.39934235713967 617.2103737424105,56.682180608336324 556.185340621148,73.11497931652104 545.432102880512,90.71106799486718 548.7766945733706,147.59087489029568 636.5459991291001,167.85548669062229 656.6742335570816,151.7933767058151" stroke="#f1f2ed" stroke-width="0.0" /><polygon fill="#105a63" points="717.6047055517278,165.552335226418 738.34136474245,152.19937902960285 742.3759554383174,59.391104084227415 736.6466326503563,56.19671893135781 653.4504321925016,98.39934235713967 656.6742335570816,151.7933767058151 717.6047055517278,165.552335226418" stroke="#f1f2ed" stroke-width="0.0" /><polygon fill="#db9d36" points="841.6413558252433,108.34702457533851 808.5140883014451,52.56709923902573 742.3759554383174,59.391104084227415 738.34136474245,152.19937902960285 820.6585261457848,162.00128736594226 832.7888825313651,150.8101373393568 841.6413558252433,108.34702457533851" stroke="#f1f2ed" stroke-width="0.0" /><polygon fill="#ffd34e" points="935.5105224400706,191.67802031793406 927.419934646383,92.58222678026478 915.6710304493015,86.38743915145955 841.6413558252433,108.34702457533851 832.7888825313651,150.8101373393568 932.4182288544259,196.0578869215271 935.5105224400706,191.67802031793406" stroke="#f1f2ed" stroke-width="0.0" /><polygon fill="#fff9d5" points="927.419934646383,92.58222678026478 935.5105224400706,191.67802031793406 1000.0,158.53069127162004 1000.0,83.46871179550287 927.419934646383,92.58222678026478" stroke="#f1f2ed" stroke-width="0.0" /><polygon fill="#bd4932" points="46.19394141523451,150.87600091099705 0.0,151.6329131217415 0.0,269.98251272853065 56.75331509107122,251.0156672604057 60.0326142926185,246.1361971841508 46.19394141523451,150.87600091099705" stroke="#f1f2ed" stroke-width="0.0" /><polygon fill="#fff9d5" points="66.34508743113862,132.07276056259246 46.19394141523451,150.87600091099705 60.0326142926185,246.1361971841508 143.96352978830768,231.70634800700014 159.5505357137807,156.22814516775694 66.34508743113862,132.07276056259246" stroke="#f1f2ed" stroke-width="0.0" /><polygon fill="#db9d36" points="245.3626729132349,242.4811633078343 250.0170874833311,235.63171904401264 246.05312058589735,192.07762890600236 170.66353561749037,149.66007719170256 159.5505357137807,156.22814516775694 143.96352978830768,231.70634800700014 177.44821338021015,275.21789013059356 245.3626729132349,242.4811633078343" stroke="#f1f2ed" stroke-width="0.0" /><polygon fill="#fff9d5" points="352.08588780281474,166.54613983381574 278.1589740506219,165.9484873223208 246.05312058589735,192.07762890600236 250.0170874833311,235.63171904401264 343.6308557213548,248.4343392980803 352.08588780281474,166.54613983381574" stroke="#f1f2ed" stroke-width="0.0" /><polygon fill="#ffd34e" points="348.2528333609071,257.1837211455069 441.8810576154519,242.5330176633096 433.3969819379341,163.72245087330458 360.7195438645469,157.10332887313 352.08588780281474,166.54613983381574 343.6308557213548,248.4343392980803 348.2528333609071,257.1837211455069" stroke="#f1f2ed" stroke-width="0.0" /><polygon fill="#105a63" points="440.294925967836,159.01064021151072 433.3969819379341,163.72245087330458 441.8810576154519,242.5330176633096 469.00951273273796,269.7451846483076 533.21598855853,233.16511939853123 528.9657998367086,170.34155796719324 440.294925967836,159.01064021151072" stroke="#f1f2ed" stroke-width="0.0" /><polygon fill="#fff9d5" points="548.7766945733706,147.59087489029568 528.9657998367086,170.34155796719324 533.21598855853,233.16511939853123 577.1366443931073,260.5440961681775 625.6359422181049,261.18449446632997 626.6972881785582,260.2773459015797 636.5459991291001,167.85548669062229 548.7766945733706,147.59087489029568" stroke="#f1f2ed" stroke-width="0.0" /><polygon fill="#bd4932" points="626.6972881785582,260.2773459015797 711.0622660185807,263.2935696622737 727.6737597733406,240.23952094685936 717.6047055517278,165.552335226418 656.6742335570816,151.7933767058151 636.5459991291001,167.85548669062229 626.6972881785582,260.2773459015797" stroke="#f1f2ed" stroke-width="0.0" /><polygon fill="#ffd34e" points="727.6737597733406,240.23952094685936 813.2686202832549,235.25892602232926 820.6585261457848,162.00128736594226 738.34136474245,152.19937902960285 717.6047055517278,165.552335226418 727.6737597733406,240.23952094685936" stroke="#f1f2ed" stroke-width="0.0" /><polygon fill="#fff9d5" points="932.4182288544259,196.0578869215271 832.7888825313651,150.8101373393568 820.6585261457848,162.00128736594226 813.2686202832549,235.25892602232926 831.5865083718045,263.5538221170484 933.8947843956362,231.52594316741994 932.4182288544259,196.0578869215271" stroke="#f1f2ed" stroke-width="0.0" /><polygon fill="#db9d36" points="935.5105224400706,191.67802031793406 932.4182288544259,196.0578869215271 933.8947843956362,231.52594316741994 940.6614611847353,240.5598529971311 1000.0,249.86030988502748 1000.0,158.53069127162004 935.5105224400706,191.67802031793406" stroke="#f1f2ed" stroke-width="0.0" /><polygon fill="#fff9d5" points="0.0,269.98251272853065 0.0,342.63290894612834 94.17691940705899,330.6879553145234 56.75331509107122,251.0156672604057 0.0,269.98251272853065" stroke="#f1f2ed" stroke-width="0.0" /><polygon fill="#ffd34e" points="143.96352978830768,231.70634800700014 60.0326142926185,246.1361971841508 56.75331509107122,251.0156672604057 94.17691940705899,330.6879553145234 101.12753306272509,336.5367856916997 164.1347674564136,335.7998105811469 171.04451898913723,328.59724649887403 177.44821338021015,275.21789013059356 143.96352978830768,231.70634800700014" stroke="#f1f2ed" stroke-width="0.0" /><polygon fill="#fff9d5" points="171.04451898913723,328.59724649887403 264.53230633974715,345.7486650894447 280.3932036579603,331.8305816087754 245.3626729132349,242.4811633078343 177.44821338021015,275.21789013059356 171.04451898913723,328.59724649887403" stroke="#f1f2ed" stroke-width="0.0" /><polygon fill="#bd4932" points="280.3932036579603,331.8305816087754 346.2515155776397,316.8223408959404 348.2528333609071,257.1837211455069 343.6308557213548,248.4343392980803 250.0170874833311,235.63171904401264 245.3626729132349,242.4811633078343 280.3932036579603,331.8305816087754" stroke="#f1f2ed" stroke-width="0.0" /><polygon fill="#fff9d5" points="346.2515155776397,316.8223408959404 381.10441443808907,350.82885610872654 414.3422426946005,346.28439863471243 464.7627089585001,311.45965092892305 469.00951273273796,269.7451846483076 441.8810576154519,242.5330176633096 348.2528333609071,257.1837211455069 346.2515155776397,316.8223408959404" stroke="#f1f2ed" stroke-width="0.0" /><polygon fill="#db9d36" points="533.21598855853,233.16511939853123 469.00951273273796,269.7451846483076 464.7627089585001,311.45965092892305 530.5890160281225,352.8846156121516 577.1366443931073,260.5440961681775 533.21598855853,233.16511939853123" stroke="#f1f2ed" stroke-width="0.0" /><polygon fill="#fff9d5" points="577.1366443931073,260.5440961681775 530.5890160281225,352.8846156121516 534.9186829108711,361.1719802126264 630.6942801698032,327.38060885957304 625.6359422181049,261.18449446632997 577.1366443931073,260.5440961681775" stroke="#f1f2ed" stroke-width="0.0" /><polygon fill="#ffd34e" points="626.6972881785582,260.2773459015797 625.6359422181049,261.18449446632997 630.6942801698032,327.38060885957304 633.9213330618205,332.3960850332011 731.7519033912375,345.1413384278787 740.8757918821219,336.2842882197048 711.0622660185807,263.2935696622737 626.6972881785582,260.2773459015797" stroke="#f1f2ed" stroke-width="0.0" /><polygon fill="#db9d36" points="740.8757918821219,336.2842882197048 794.7081592381472,338.9005972377091 827.931589646764,304.67785680812835 831.5865083718045,263.5538221170484 813.2686202832549,235.25892602232926 727.6737597733406,240.23952094685936 711.0622660185807,263.2935696622737 740.8757918821219,336.2842882197048" stroke="#f1f2ed" stroke-width="0.0" /><polygon fill="#bd4932" points="831.5865083718045,263.5538221170484 827.931589646764,304.67785680812835 926.2838551696345,345.54150190812794 935.0442056916806,339.5675809765823 940.6614611847353,240.5598529971311 933.8947843956362,231.52594316741994 831.5865083718045,263.5538221170484" stroke="#f1f2ed" stroke-width="0.0" /><polygon fill="#105a63" points="940.6614611847353,240.5598529971311 935.0442056916806,339.5675809765823 1000.0,349.02055485301634 1000.0,249.86030988502748 940.6614611847353,240.5598529971311" stroke="#f1f2ed" stroke-width="0.0" /><polygon fill="#105a63" points="58.96464224452115,423.2788136526303 101.12753306272509,336.5367856916997 94.17691940705899,330.6879553145234 0.0,342.63290894612834 0.0,393.4432623482871 58.96464224452115,423.2788136526303" stroke="#f1f2ed" stroke-width="0.0" /><polygon fill="#db9d36" points="101.12753306272509,336.5367856916997 58.96464224452115,423.2788136526303 74.70487921004612,453.0181049876618 172.06718274408894,429.51868930321723 164.1347674564136,335.7998105811469 101.12753306272509,336.5367856916997" stroke="#f1f2ed" stroke-width="0.0" /><polygon fill="#bd4932" points="164.1347674564136,335.7998105811469 172.06718274408894,429.51868930321723 177.50171202348477,433.7497354083825 240.13936951677144,438.8507671227435 267.4516451309102,414.509828408424 264.53230633974715,345.7486650894447 171.04451898913723,328.59724649887403 164.1347674564136,335.7998105811469" stroke="#f1f2ed" stroke-width="0.0" /><polygon fill="#db9d36" points="264.53230633974715,345.7486650894447 267.4516451309102,414.509828408424 357.71227445752623,433.1472576103809 381.10441443808907,350.82885610872654 346.2515155776397,316.8223408959404 280.3932036579603,331.8305816087754 264.53230633974715,345.7486650894447" stroke="#f1f2ed" stroke-width="0.0" /><polygon fill="#bd4932" points="362.8835055840255,446.31056578525687 506.1071354632299,468.883848440714 414.3422426946005,346.28439863471243 381.10441443808907,350.82885610872654 357.71227445752623,433.1472576103809 362.8835055840255,446.31056578525687" stroke="#f1f2ed" stroke-width="0.0" /><polygon fill="#105a63" points="464.7627089585001,311.45965092892305 414.3422426946005,346.28439863471243 506.1071354632299,468.883848440714 547.1635949094285,489.6145333602885 534.9186829108711,361.1719802126264 530.5890160281225,352.8846156121516 464.7627089585001,311.45965092892305" stroke="#f1f2ed" stroke-width="0.0" /><polygon fill="#bd4932" points="547.1635949094285,489.6145333602885 554.6938977638055,500.0 636.2743107182076,500.0 633.9213330618205,332.3960850332011 630.6942801698032,327.38060885957304 534.9186829108711,361.1719802126264 547.1635949094285,489.6145333602885" stroke="#f1f2ed" stroke-width="0.0" /><polygon fill="#db9d36" points="636.2743107182076,500.0 669.5303698434161,500.0 731.7519033912375,345.1413384278787 633.9213330618205,332.3960850332011 636.2743107182076,500.0" stroke="#f1f2ed" stroke-width="0.0" /><polygon fill="#105a63" points="794.7081592381472,338.9005972377091 740.8757918821219,336.2842882197048 731.7519033912375,345.1413384278787 669.5303698434161,500.0 857.0286915917208,500.0 794.7081592381472,338.9005972377091" stroke="#f1f2ed" stroke-width="0.0" /><polygon fill="#fff9d5" points="926.2838551696345,345.54150190812794 827.931589646764,304.67785680812835 794.7081592381472,338.9005972377091 857.0286915917208,500.0 873.658616510337,500.0 926.2838551696345,345.54150190812794" stroke="#f1f2ed" stroke-width="0.0" /><polygon fill="#ffd34e" points="873.658616510337,500.0 1000.0,500.0 1000.0,349.02055485301634 935.0442056916806,339.5675809765823 926.2838551696345,345.54150190812794 873.658616510337,500.0" stroke="#f1f2ed" stroke-width="0.0" /><polygon fill="#ffd34e" points="74.70487921004612,453.0181049876618 58.96464224452115,423.2788136526303 0.0,393.4432623482871 0.0,500.0 62.49913377080651,500.0 74.70487921004612,453.0181049876618" stroke="#f1f2ed" stroke-width="0.0" /><polygon fill="#fff9d5" points="177.50171202348477,433.7497354083825 172.06718274408894,429.51868930321723 74.70487921004612,453.0181049876618 62.49913377080651,500.0 175.46155416009464,500.0 177.50171202348477,433.7497354083825" stroke="#f1f2ed" stroke-width="0.0" /><polygon fill="#105a63" points="240.13936951677144,438.8507671227435 177.50171202348477,433.7497354083825 175.46155416009464,500.0 260.3691697538563,500.0 240.13936951677144,438.8507671227435" stroke="#f1f2ed" stroke-width="0.0" /><polygon fill="#ffd34e" points="362.8835055840255,446.31056578525687 357.71227445752623,433.1472576103809 267.4516451309102,414.509828408424 240.13936951677144,438.8507671227435 260.3691697538563,500.0 347.39004551363524,500.0 362.8835055840255,446.31056578525687" stroke="#f1f2ed" stroke-width="0.0" /><polygon fill="#db9d36" points="547.1635949094285,489.6145333602885 506.1071354632299,468.883848440714 362.8835055840255,446.31056578525687 347.39004551363524,500.0 554.6938977638055,500.0 547.1635949094285,489.6145333602885" stroke="#f1f2ed" stroke-width="0.0" /><polyline fill="none" points="597.4031030097709,364.12405127741334 762.970727985082,399.91292649043135 412.2732035979332,498.3581938859742 597.4031030097709,364.12405127741334" stroke="#000000" stroke-opacity="0.25" stroke-width="0.8" /><polyline fill="none" points="762.970727985082,399.91292649043135 968.9210361406177,400.0385275201698 412.2732035979332,498.3581938859742 762.970727985082,399.91292649043135" stroke="#000000" stroke-opacity="0.25" stroke-width="0.8" /><polyline fill="none" points="114.51231910434284,280.7286577348131 99.83097886663643,195.33494975305612 198.89353705830368,215.7923616076375 114.51231910434284,280.7286577348131" stroke="#000000" stroke-opacity="0.25" stroke-width="0.8" /><polyline fill="none" points="99.83097886663643,195.33494975305612 114.51231910434284,280.7286577348131 7.4243704938721,208.75907520113273 99.83097886663643,195.33494975305612" stroke="#000000" stroke-opacity="0.25" stroke-width="0.8" /><polyline fill="none" points="764.1337853580009,1.9980508153590364 397.82659593620093,10.697023981379091 33.07313497745717,-0.1611082342292285 764.1337853580009,1.9980508153590364" stroke="#000000" stroke-opacity="0.25" stroke-width="0.8" /><polyline fill="none" points="139.11379630244895,488.55174466364144 212.44486258444996,490.8099537806649 412.2732035979332,498.3581938859742 139.11379630244895,488.55174466364144" stroke="#000000" stroke-opacity="0.25" stroke-width="0.8" /><polyline fill="none" points="212.44486258444996,490.8099537806649 293.3572844145317,464.0419625352654 412.2732035979332,498.3581938859742 212.44486258444996,490.8099537806649" stroke="#000000" stroke-opacity="0.25" stroke-width="0.8" /><polyline fill="none" points="474.11761036689836,375.87732128891224 597.4031030097709,364.12405127741334 412.2732035979332,498.3581938859742 474.11761036689836,375.87732128891224" stroke="#000000" stroke-opacity="0.25" stroke-width="0.8" /><polyline fill="none" points="960.5015043859606,132.53473460487703 949.5969932966917,45.69116998335511 998.1492647136112,205.7799843635932 960.5015043859606,132.53473460487703" stroke="#000000" stroke-opacity="0.25" stroke-width="0.8" /><polyline fill="none" points="901.2570480950324,137.3716954666803 960.5015043859606,132.53473460487703 998.1492647136112,205.7799843635932 901.2570480950324,137.3716954666803" stroke="#000000" stroke-opacity="0.25" stroke-width="0.8" /><polyline fill="none" points="960.5015043859606,132.53473460487703 901.2570480950324,137.3716954666803 949.5969932966917,45.69116998335511 960.5015043859606,132.53473460487703" stroke="#000000" stroke-opacity="0.25" stroke-width="0.8" /><polyline fill="none" points="949.5969932966917,45.69116998335511 875.7875715067564,51.509552430735894 764.1337853580009,1.9980508153590364 949.5969932966917,45.69116998335511" stroke="#000000" stroke-opacity="0.25" stroke-width="0.8" /><polyline fill="none" points="901.2570480950324,137.3716954666803 875.7875715067564,51.509552430735894 949.5969932966917,45.69116998335511 901.2570480950324,137.3716954666803" stroke="#000000" stroke-opacity="0.25" stroke-width="0.8" /><polyline fill="none" points="968.9210361406177,400.0385275201698 984.7514211665385,291.26056547283275 998.1492647136112,205.7799843635932 968.9210361406177,400.0385275201698" stroke="#000000" stroke-opacity="0.25" stroke-width="0.8" /><polyline fill="none" points="7.4243704938721,208.75907520113273 42.7427881017573,314.44018524059265 1.1450265500665715,452.7079013763413 7.4243704938721,208.75907520113273" stroke="#000000" stroke-opacity="0.25" stroke-width="0.8" /><polyline fill="none" points="114.51231910434284,280.7286577348131 42.7427881017573,314.44018524059265 7.4243704938721,208.75907520113273 114.51231910434284,280.7286577348131" stroke="#000000" stroke-opacity="0.25" stroke-width="0.8" /><polyline fill="none" points="221.2168422901917,383.09522250396617 293.3572844145317,464.0419625352654 212.44486258444996,490.8099537806649 221.2168422901917,383.09522250396617" stroke="#000000" stroke-opacity="0.25" stroke-width="0.8" /><polyline fill="none" points="293.3572844145317,464.0419625352654 221.2168422901917,383.09522250396617 310.85737761637466,379.28942458829715 293.3572844145317,464.0419625352654" stroke="#000000" stroke-opacity="0.25" stroke-width="0.8" /><polyline fill="none" points="139.11379630244895,488.55174466364144 221.2168422901917,383.09522250396617 212.44486258444996,490.8099537806649 139.11379630244895,488.55174466364144" stroke="#000000" stroke-opacity="0.25" stroke-width="0.8" /><polyline fill="none" points="126.34254804075306,93.03797829347087 241.8418873084255,139.4593775107992 198.89353705830368,215.7923616076375 126.34254804075306,93.03797829347087" stroke="#000000" stroke-opacity="0.25" stroke-width="0.8" /><polyline fill="none" points="99.83097886663643,195.33494975305612 126.34254804075306,93.03797829347087 198.89353705830368,215.7923616076375 99.83097886663643,195.33494975305612" stroke="#000000" stroke-opacity="0.25" stroke-width="0.8" /><polyline fill="none" points="576.4239257179295,13.8505521150401 397.82659593620093,10.697023981379091 764.1337853580009,1.9980508153590364 576.4239257179295,13.8505521150401" stroke="#000000" stroke-opacity="0.25" stroke-width="0.8" /><polyline fill="none" points="126.34254804075306,93.03797829347087 217.53246473434183,12.329979671014325 241.8418873084255,139.4593775107992 126.34254804075306,93.03797829347087" stroke="#000000" stroke-opacity="0.25" stroke-width="0.8" /><polyline fill="none" points="217.53246473434183,12.329979671014325 126.34254804075306,93.03797829347087 98.4910882270075,23.69717441070448 217.53246473434183,12.329979671014325" stroke="#000000" stroke-opacity="0.25" stroke-width="0.8" /><polyline fill="none" points="217.53246473434183,12.329979671014325 98.4910882270075,23.69717441070448 33.07313497745717,-0.1611082342292285 217.53246473434183,12.329979671014325" stroke="#000000" stroke-opacity="0.25" stroke-width="0.8" /><polyline fill="none" points="397.82659593620093,10.697023981379091 217.53246473434183,12.329979671014325 33.07313497745717,-0.1611082342292285 397.82659593620093,10.697023981379091" stroke="#000000" stroke-opacity="0.25" stroke-width="0.8" /><polyline fill="none" points="241.8418873084255,139.4593775107992 296.71906276952103,206.8890153452184 198.89353705830368,215.7923616076375 241.8418873084255,139.4593775107992" stroke="#000000" stroke-opacity="0.25" stroke-width="0.8" /><polyline fill="none" points="296.71906276952103,206.8890153452184 287.28680968012924,275.85839326550484 198.89353705830368,215.7923616076375 296.71906276952103,206.8890153452184" stroke="#000000" stroke-opacity="0.25" stroke-width="0.8" /><polyline fill="none" points="425.8875997723735,411.9771713081395 474.11761036689836,375.87732128891224 412.2732035979332,498.3581938859742 425.8875997723735,411.9771713081395" stroke="#000000" stroke-opacity="0.25" stroke-width="0.8" /><polyline fill="none" points="293.3572844145317,464.0419625352654 425.8875997723735,411.9771713081395 412.2732035979332,498.3581938859742 293.3572844145317,464.0419625352654" stroke="#000000" stroke-opacity="0.25" stroke-width="0.8" /><polyline fill="none" points="425.8875997723735,411.9771713081395 293.3572844145317,464.0419625352654 310.85737761637466,379.28942458829715 425.8875997723735,411.9771713081395" stroke="#000000" stroke-opacity="0.25" stroke-width="0.8" /><polyline fill="none" points="287.28680968012924,275.85839326550484 407.8297662602472,279.9035030225875 310.85737761637466,379.28942458829715 287.28680968012924,275.85839326550484" stroke="#000000" stroke-opacity="0.25" stroke-width="0.8" /><polyline fill="none" points="407.8297662602472,279.9035030225875 425.8875997723735,411.9771713081395 310.85737761637466,379.28942458829715 407.8297662602472,279.9035030225875" stroke="#000000" stroke-opacity="0.25" stroke-width="0.8" /><polyline fill="none" points="425.8875997723735,411.9771713081395 407.8297662602472,279.9035030225875 474.11761036689836,375.87732128891224 425.8875997723735,411.9771713081395" stroke="#000000" stroke-opacity="0.25" stroke-width="0.8" /><polyline fill="none" points="526.8869181616437,292.0242948515797 407.8297662602472,279.9035030225875 479.3562775581055,208.59702630907375 526.8869181616437,292.0242948515797" stroke="#000000" stroke-opacity="0.25" stroke-width="0.8" /><polyline fill="none" points="407.8297662602472,279.9035030225875 526.8869181616437,292.0242948515797 474.11761036689836,375.87732128891224 407.8297662602472,279.9035030225875" stroke="#000000" stroke-opacity="0.25" stroke-width="0.8" /><polyline fill="none" points="677.930809139508,312.31099146867575 769.0368561814188,275.09814381501366 762.970727985082,399.91292649043135 677.930809139508,312.31099146867575" stroke="#000000" stroke-opacity="0.25" stroke-width="0.8" /><polyline fill="none" points="769.0368561814188,275.09814381501366 677.930809139508,312.31099146867575 681.515874633726,212.03528416997912 769.0368561814188,275.09814381501366" stroke="#000000" stroke-opacity="0.25" stroke-width="0.8" /><polyline fill="none" points="775.3940652090761,111.13248166062334 875.7875715067564,51.509552430735894 901.2570480950324,137.3716954666803 775.3940652090761,111.13248166062334" stroke="#000000" stroke-opacity="0.25" stroke-width="0.8" /><polyline fill="none" points="875.7875715067564,51.509552430735894 775.3940652090761,111.13248166062334 764.1337853580009,1.9980508153590364 875.7875715067564,51.509552430735894" stroke="#000000" stroke-opacity="0.25" stroke-width="0.8" /><polyline fill="none" points="237.29484181857822,295.4583548597142 287.28680968012924,275.85839326550484 310.85737761637466,379.28942458829715 237.29484181857822,295.4583548597142" stroke="#000000" stroke-opacity="0.25" stroke-width="0.8" /><polyline fill="none" points="221.2168422901917,383.09522250396617 237.29484181857822,295.4583548597142 310.85737761637466,379.28942458829715 221.2168422901917,383.09522250396617" stroke="#000000" stroke-opacity="0.25" stroke-width="0.8" /><polyline fill="none" points="287.28680968012924,275.85839326550484 237.29484181857822,295.4583548597142 198.89353705830368,215.7923616076375 287.28680968012924,275.85839326550484" stroke="#000000" stroke-opacity="0.25" stroke-width="0.8" /><polyline fill="none" points="237.29484181857822,295.4583548597142 114.51231910434284,280.7286577348131 198.89353705830368,215.7923616076375 237.29484181857822,295.4583548597142" stroke="#000000" stroke-opacity="0.25" stroke-width="0.8" /><polyline fill="none" points="237.29484181857822,295.4583548597142 221.2168422901917,383.09522250396617 114.51231910434284,280.7286577348131 237.29484181857822,295.4583548597142" stroke="#000000" stroke-opacity="0.25" stroke-width="0.8" /><polyline fill="none" points="115.81401762426405,392.0165731341169 221.2168422901917,383.09522250396617 139.11379630244895,488.55174466364144 115.81401762426405,392.0165731341169" stroke="#000000" stroke-opacity="0.25" stroke-width="0.8" /><polyline fill="none" points="115.81401762426405,392.0165731341169 139.11379630244895,488.55174466364144 1.1450265500665715,452.7079013763413 115.81401762426405,392.0165731341169" stroke="#000000" stroke-opacity="0.25" stroke-width="0.8" /><polyline fill="none" points="221.2168422901917,383.09522250396617 115.81401762426405,392.0165731341169 114.51231910434284,280.7286577348131 221.2168422901917,383.09522250396617" stroke="#000000" stroke-opacity="0.25" stroke-width="0.8" /><polyline fill="none" points="5.548802504043781,94.29417872759682 99.83097886663643,195.33494975305612 7.4243704938721,208.75907520113273 5.548802504043781,94.29417872759682" stroke="#000000" stroke-opacity="0.25" stroke-width="0.8" /><polyline fill="none" points="5.548802504043781,94.29417872759682 126.34254804075306,93.03797829347087 99.83097886663643,195.33494975305612 5.548802504043781,94.29417872759682" stroke="#000000" stroke-opacity="0.25" stroke-width="0.8" /><polyline fill="none" points="5.548802504043781,94.29417872759682 7.4243704938721,208.75907520113273 1.1450265500665715,452.7079013763413 5.548802504043781,94.29417872759682" stroke="#000000" stroke-opacity="0.25" stroke-width="0.8" /><polyline fill="none" points="98.4910882270075,23.69717441070448 5.548802504043781,94.29417872759682 33.07313497745717,-0.1611082342292285 98.4910882270075,23.69717441070448" stroke="#000000" stroke-opacity="0.25" stroke-width="0.8" /><polyline fill="none" points="126.34254804075306,93.03797829347087 5.548802504043781,94.29417872759682 98.4910882270075,23.69717441070448 126.34254804075306,93.03797829347087" stroke="#000000" stroke-opacity="0.25" stroke-width="0.8" /><polyline fill="none" points="576.4239257179295,13.8505521150401 498.06201937478795,49.800773657058215 397.82659593620093,10.697023981379091 576.4239257179295,13.8505521150401" stroke="#000000" stroke-opacity="0.25" stroke-width="0.8" /><polyline fill="none" points="498.06201937478795,49.800773657058215 408.31141499459295,104.58956065496675 397.82659593620093,10.697023981379091 498.06201937478795,49.800773657058215" stroke="#000000" stroke-opacity="0.25" stroke-width="0.8" /><polyline fill="none" points="408.31141499459295,104.58956065496675 310.5725298106689,34.46127774803082 397.82659593620093,10.697023981379091 408.31141499459295,104.58956065496675" stroke="#000000" stroke-opacity="0.25" stroke-width="0.8" /><polyline fill="none" points="217.53246473434183,12.329979671014325 310.5725298106689,34.46127774803082 241.8418873084255,139.4593775107992 217.53246473434183,12.329979671014325" stroke="#000000" stroke-opacity="0.25" stroke-width="0.8" /><polyline fill="none" points="310.5725298106689,34.46127774803082 217.53246473434183,12.329979671014325 397.82659593620093,10.697023981379091 310.5725298106689,34.46127774803082" stroke="#000000" stroke-opacity="0.25" stroke-width="0.8" /><polyline fill="none" points="474.11761036689836,375.87732128891224 581.7164901411754,319.66315323446884 597.4031030097709,364.12405127741334 474.11761036689836,375.87732128891224" stroke="#000000" stroke-opacity="0.25" stroke-width="0.8" /><polyline fill="none" points="526.8869181616437,292.0242948515797 581.7164901411754,319.66315323446884 474.11761036689836,375.87732128891224 526.8869181616437,292.0242948515797" stroke="#000000" stroke-opacity="0.25" stroke-width="0.8" /><polyline fill="none" points="581.7164901411754,319.66315323446884 677.930809139508,312.31099146867575 597.4031030097709,364.12405127741334 581.7164901411754,319.66315323446884" stroke="#000000" stroke-opacity="0.25" stroke-width="0.8" /><polyline fill="none" points="398.0416595019654,217.3506668597751 408.31141499459295,104.58956065496675 479.3562775581055,208.59702630907375 398.0416595019654,217.3506668597751" stroke="#000000" stroke-opacity="0.25" stroke-width="0.8" /><polyline fill="none" points="407.8297662602472,279.9035030225875 398.0416595019654,217.3506668597751 479.3562775581055,208.59702630907375 407.8297662602472,279.9035030225875" stroke="#000000" stroke-opacity="0.25" stroke-width="0.8" /><polyline fill="none" points="296.71906276952103,206.8890153452184 398.0416595019654,217.3506668597751 287.28680968012924,275.85839326550484 296.71906276952103,206.8890153452184" stroke="#000000" stroke-opacity="0.25" stroke-width="0.8" /><polyline fill="none" points="398.0416595019654,217.3506668597751 407.8297662602472,279.9035030225875 287.28680968012924,275.85839326550484 398.0416595019654,217.3506668597751" stroke="#000000" stroke-opacity="0.25" stroke-width="0.8" /><polyline fill="none" points="597.4031030097709,364.12405127741334 671.3158482074695,363.0863962918071 762.970727985082,399.91292649043135 597.4031030097709,364.12405127741334" stroke="#000000" stroke-opacity="0.25" stroke-width="0.8" /><polyline fill="none" points="671.3158482074695,363.0863962918071 677.930809139508,312.31099146867575 762.970727985082,399.91292649043135 671.3158482074695,363.0863962918071" stroke="#000000" stroke-opacity="0.25" stroke-width="0.8" /><polyline fill="none" points="677.930809139508,312.31099146867575 671.3158482074695,363.0863962918071 597.4031030097709,364.12405127741334 677.930809139508,312.31099146867575" stroke="#000000" stroke-opacity="0.25" stroke-width="0.8" /><polyline fill="none" points="859.2431522866813,362.6704002577447 968.9210361406177,400.0385275201698 762.970727985082,399.91292649043135 859.2431522866813,362.6704002577447" stroke="#000000" stroke-opacity="0.25" stroke-width="0.8" /><polyline fill="none" points="769.0368561814188,275.09814381501366 859.2431522866813,362.6704002577447 762.970727985082,399.91292649043135 769.0368561814188,275.09814381501366" stroke="#000000" stroke-opacity="0.25" stroke-width="0.8" /><polyline fill="none" points="867.7227088659592,211.20971675215958 775.3940652090761,111.13248166062334 901.2570480950324,137.3716954666803 867.7227088659592,211.20971675215958" stroke="#000000" stroke-opacity="0.25" stroke-width="0.8" /><polyline fill="none" points="867.7227088659592,211.20971675215958 901.2570480950324,137.3716954666803 998.1492647136112,205.7799843635932 867.7227088659592,211.20971675215958" stroke="#000000" stroke-opacity="0.25" stroke-width="0.8" /><polyline fill="none" points="764.7146842662177,200.81872382857213 769.0368561814188,275.09814381501366 681.515874633726,212.03528416997912 764.7146842662177,200.81872382857213" stroke="#000000" stroke-opacity="0.25" stroke-width="0.8" /><polyline fill="none" points="764.7146842662177,200.81872382857213 867.7227088659592,211.20971675215958 769.0368561814188,275.09814381501366 764.7146842662177,200.81872382857213" stroke="#000000" stroke-opacity="0.25" stroke-width="0.8" /><polyline fill="none" points="867.7227088659592,211.20971675215958 764.7146842662177,200.81872382857213 775.3940652090761,111.13248166062334 867.7227088659592,211.20971675215958" stroke="#000000" stroke-opacity="0.25" stroke-width="0.8" /><polyline fill="none" points="704.9922589016427,108.0719520594923 764.7146842662177,200.81872382857213 681.515874633726,212.03528416997912 704.9922589016427,108.0719520594923" stroke="#000000" stroke-opacity="0.25" stroke-width="0.8" /><polyline fill="none" points="764.7146842662177,200.81872382857213 704.9922589016427,108.0719520594923 775.3940652090761,111.13248166062334 764.7146842662177,200.81872382857213" stroke="#000000" stroke-opacity="0.25" stroke-width="0.8" /><polyline fill="none" points="775.3940652090761,111.13248166062334 704.9922589016427,108.0719520594923 764.1337853580009,1.9980508153590364 775.3940652090761,111.13248166062334" stroke="#000000" stroke-opacity="0.25" stroke-width="0.8" /><polyline fill="none" points="42.7427881017573,314.44018524059265 48.42777331141615,359.2619912042233 1.1450265500665715,452.7079013763413 42.7427881017573,314.44018524059265" stroke="#000000" stroke-opacity="0.25" stroke-width="0.8" /><polyline fill="none" points="48.42777331141615,359.2619912042233 115.81401762426405,392.0165731341169 1.1450265500665715,452.7079013763413 48.42777331141615,359.2619912042233" stroke="#000000" stroke-opacity="0.25" stroke-width="0.8" /><polyline fill="none" points="48.42777331141615,359.2619912042233 42.7427881017573,314.44018524059265 114.51231910434284,280.7286577348131 48.42777331141615,359.2619912042233" stroke="#000000" stroke-opacity="0.25" stroke-width="0.8" /><polyline fill="none" points="115.81401762426405,392.0165731341169 48.42777331141615,359.2619912042233 114.51231910434284,280.7286577348131 115.81401762426405,392.0165731341169" stroke="#000000" stroke-opacity="0.25" stroke-width="0.8" /><polyline fill="none" points="408.31141499459295,104.58956065496675 490.5703837597306,120.84026926635659 479.3562775581055,208.59702630907375 408.31141499459295,104.58956065496675" stroke="#000000" stroke-opacity="0.25" stroke-width="0.8" /><polyline fill="none" points="498.06201937478795,49.800773657058215 490.5703837597306,120.84026926635659 408.31141499459295,104.58956065496675 498.06201937478795,49.800773657058215" stroke="#000000" stroke-opacity="0.25" stroke-width="0.8" /><polyline fill="none" points="310.5725298106689,34.46127774803082 297.37855034212174,125.31338408359031 241.8418873084255,139.4593775107992 310.5725298106689,34.46127774803082" stroke="#000000" stroke-opacity="0.25" stroke-width="0.8" /><polyline fill="none" points="297.37855034212174,125.31338408359031 310.5725298106689,34.46127774803082 408.31141499459295,104.58956065496675 297.37855034212174,125.31338408359031" stroke="#000000" stroke-opacity="0.25" stroke-width="0.8" /><polyline fill="none" points="297.37855034212174,125.31338408359031 296.71906276952103,206.8890153452184 241.8418873084255,139.4593775107992 297.37855034212174,125.31338408359031" stroke="#000000" stroke-opacity="0.25" stroke-width="0.8" /><polyline fill="none" points="398.0416595019654,217.3506668597751 297.37855034212174,125.31338408359031 408.31141499459295,104.58956065496675 398.0416595019654,217.3506668597751" stroke="#000000" stroke-opacity="0.25" stroke-width="0.8" /><polyline fill="none" points="297.37855034212174,125.31338408359031 398.0416595019654,217.3506668597751 296.71906276952103,206.8890153452184 297.37855034212174,125.31338408359031" stroke="#000000" stroke-opacity="0.25" stroke-width="0.8" /><polyline fill="none" points="677.930809139508,312.31099146867575 583.2758703797869,201.56657672417242 681.515874633726,212.03528416997912 677.930809139508,312.31099146867575" stroke="#000000" stroke-opacity="0.25" stroke-width="0.8" /><polyline fill="none" points="581.7164901411754,319.66315323446884 583.2758703797869,201.56657672417242 677.930809139508,312.31099146867575 581.7164901411754,319.66315323446884" stroke="#000000" stroke-opacity="0.25" stroke-width="0.8" /><polyline fill="none" points="583.2758703797869,201.56657672417242 581.7164901411754,319.66315323446884 526.8869181616437,292.0242948515797 583.2758703797869,201.56657672417242" stroke="#000000" stroke-opacity="0.25" stroke-width="0.8" /><polyline fill="none" points="583.2758703797869,201.56657672417242 526.8869181616437,292.0242948515797 479.3562775581055,208.59702630907375 583.2758703797869,201.56657672417242" stroke="#000000" stroke-opacity="0.25" stroke-width="0.8" /><polyline fill="none" points="490.5703837597306,120.84026926635659 583.2758703797869,201.56657672417242 479.3562775581055,208.59702630907375 490.5703837597306,120.84026926635659" stroke="#000000" stroke-opacity="0.25" stroke-width="0.8" /><polyline fill="none" points="891.1198306414279,285.9483279643648 859.2431522866813,362.6704002577447 769.0368561814188,275.09814381501366 891.1198306414279,285.9483279643648" stroke="#000000" stroke-opacity="0.25" stroke-width="0.8" /><polyline fill="none" points="867.7227088659592,211.20971675215958 891.1198306414279,285.9483279643648 769.0368561814188,275.09814381501366 867.7227088659592,211.20971675215958" stroke="#000000" stroke-opacity="0.25" stroke-width="0.8" /><polyline fill="none" points="891.1198306414279,285.9483279643648 984.7514211665385,291.26056547283275 968.9210361406177,400.0385275201698 891.1198306414279,285.9483279643648" stroke="#000000" stroke-opacity="0.25" stroke-width="0.8" /><polyline fill="none" points="859.2431522866813,362.6704002577447 891.1198306414279,285.9483279643648 968.9210361406177,400.0385275201698 859.2431522866813,362.6704002577447" stroke="#000000" stroke-opacity="0.25" stroke-width="0.8" /><polyline fill="none" points="984.7514211665385,291.26056547283275 891.1198306414279,285.9483279643648 998.1492647136112,205.7799843635932 984.7514211665385,291.26056547283275" stroke="#000000" stroke-opacity="0.25" stroke-width="0.8" /><polyline fill="none" points="891.1198306414279,285.9483279643648 867.7227088659592,211.20971675215958 998.1492647136112,205.7799843635932 891.1198306414279,285.9483279643648" stroke="#000000" stroke-opacity="0.25" stroke-width="0.8" /><polyline fill="none" points="676.0906342957715,51.09669414699954 576.4239257179295,13.8505521150401 764.1337853580009,1.9980508153590364 676.0906342957715,51.09669414699954" stroke="#000000" stroke-opacity="0.25" stroke-width="0.8" /><polyline fill="none" points="704.9922589016427,108.0719520594923 676.0906342957715,51.09669414699954 764.1337853580009,1.9980508153590364 704.9922589016427,108.0719520594923" stroke="#000000" stroke-opacity="0.25" stroke-width="0.8" /><polyline fill="none" points="603.4468014039071,114.20301873091782 583.2758703797869,201.56657672417242 490.5703837597306,120.84026926635659 603.4468014039071,114.20301873091782" stroke="#000000" stroke-opacity="0.25" stroke-width="0.8" /><polyline fill="none" points="603.4468014039071,114.20301873091782 498.06201937478795,49.800773657058215 576.4239257179295,13.8505521150401 603.4468014039071,114.20301873091782" stroke="#000000" stroke-opacity="0.25" stroke-width="0.8" /><polyline fill="none" points="603.4468014039071,114.20301873091782 490.5703837597306,120.84026926635659 498.06201937478795,49.800773657058215 603.4468014039071,114.20301873091782" stroke="#000000" stroke-opacity="0.25" stroke-width="0.8" /><polyline fill="none" points="676.0906342957715,51.09669414699954 603.4468014039071,114.20301873091782 576.4239257179295,13.8505521150401 676.0906342957715,51.09669414699954" stroke="#000000" stroke-opacity="0.25" stroke-width="0.8" /><polyline fill="none" points="603.4468014039071,114.20301873091782 676.0906342957715,51.09669414699954 704.9922589016427,108.0719520594923 603.4468014039071,114.20301873091782" stroke="#000000" stroke-opacity="0.25" stroke-width="0.8" /><polyline fill="none" points="603.4468014039071,114.20301873091782 704.9922589016427,108.0719520594923 681.515874633726,212.03528416997912 603.4468014039071,114.20301873091782" stroke="#000000" stroke-opacity="0.25" stroke-width="0.8" /><polyline fill="none" points="583.2758703797869,201.56657672417242 603.4468014039071,114.20301873091782 681.515874633726,212.03528416997912 583.2758703797869,201.56657672417242" stroke="#000000" stroke-opacity="0.25" stroke-width="0.8" /></svg>