<?xml version="1.0" encoding="utf-8" ?>
<svg baseProfile="full" height="100%" version="1.1" viewBox="0 0 1400 1400" width="100%" xmlns="http://www.w3.org/2000/svg" xmlns:ev="http://www.w3.org/2001/xml-events" xmlns:xlink="http://www.w3.org/1999/xlink"><defs /><rect fill="#edf1ed" height="1400" width="1400" x="0" y="0" /><polygon fill="#004564" points="212.33011731755727,948.4685289723518 235.328731477843,877.6698674911095 0.0,670.3056168685373 0.0,958.4313828593968 212.33011731755727,948.4685289723518" stroke="#edf1ed" stroke-width="2.0" /><polygon fill="#97cc96" points="749.1600419957218,779.6277200911121 721.3734846626519,798.6195237852739 821.2018925383492,1025.672263282496 1036.6283083714102,855.2938059988489 1024.8627943768925,812.8307633885846 749.1600419957218,779.6277200911121" stroke="#edf1ed" stroke-width="2.0" /><polygon fill="#ffe9a3" points="1155.196994549197,1400.0 1400.0,1400.0 1400.0,1089.9257457878332 1155.174483220304,1170.1232140730308 1155.196994549197,1400.0" stroke="#edf1ed" stroke-width="2.0" /><polygon fill="#191b28" points="792.902045640797,1092.7546679923619 800.8834800376831,1400.0 1005.3409282500918,1400.0 892.0547318591338,1097.2446651489897 827.9362397562727,1064.843484335738 792.902045640797,1092.7546679923619" stroke="#edf1ed" stroke-width="2.0" /><polygon fill="#004564" points="1154.2654653342356,955.0410214044334 1036.6283083714102,855.2938059988489 821.2018925383492,1025.672263282496 827.9362397562727,1064.843484335738 892.0547318591338,1097.2446651489897 1076.606116897285,1063.28314469814 1154.2654653342356,955.0410214044334" stroke="#edf1ed" stroke-width="2.0" /><polygon fill="#e93a25" points="556.9926366571395,937.3159583614827 449.61971141697245,1104.9516668251608 447.5834017464161,1112.9990127766516 694.1052100603279,1144.2754621970585 792.902045640797,1092.7546679923619 827.9362397562727,1064.843484335738 821.2018925383492,1025.672263282496 721.3734846626519,798.6195237852739 690.0120939627074,789.4177688249085 556.9926366571395,937.3159583614827" stroke="#edf1ed" stroke-width="2.0" /><polygon fill="#ffe9a3" points="792.902045640797,1092.7546679923619 694.1052100603279,1144.2754621970585 649.3352157173928,1400.0 800.8834800376831,1400.0 792.902045640797,1092.7546679923619" stroke="#edf1ed" stroke-width="2.0" /><polygon fill="#e93a25" points="892.0547318591338,1097.2446651489897 1005.3409282500918,1400.0 1155.196994549197,1400.0 1155.174483220304,1170.1232140730308 1076.606116897285,1063.28314469814 892.0547318591338,1097.2446651489897" stroke="#edf1ed" stroke-width="2.0" /><polygon fill="#97cc96" points="1154.2654653342356,955.0410214044334 1076.606116897285,1063.28314469814 1155.174483220304,1170.1232140730308 1400.0,1089.9257457878332 1400.0,866.0086110861212 1154.2654653342356,955.0410214044334" stroke="#edf1ed" stroke-width="2.0" /><polygon fill="#97cc96" points="588.8270912982329,66.59427626727208 1186.911982963672,438.6278145697823 1189.5810789339553,438.9233022301027 1400.0,415.3383070599144 1400.0,0.0 570.9555896722662,0.0 588.8270912982329,66.59427626727208" stroke="#edf1ed" stroke-width="2.0" /><polygon fill="#ffe9a3" points="588.8270912982329,66.59427626727208 544.6800793519195,242.81538877567635 722.1006583992511,480.99917066797195 753.7337461893387,498.74851898598325 1081.257260278681,495.5040638102836 1186.911982963672,438.6278145697823 588.8270912982329,66.59427626727208" stroke="#edf1ed" stroke-width="2.0" /><polygon fill="#ffe9a3" points="676.0796542040557,778.0010760425732 483.0126506242156,665.3261322865035 452.2028282148893,682.6267657201558 377.3845267695821,822.5054071823762 395.43276867092874,866.0564073903882 556.9926366571395,937.3159583614827 690.0120939627074,789.4177688249085 676.0796542040557,778.0010760425732" stroke="#edf1ed" stroke-width="2.0" /><polygon fill="#004564" points="395.43276867092874,866.0564073903882 377.3845267695821,822.5054071823762 277.2563084101315,872.5370906659529 413.77861760064866,1137.987955147204 447.5834017464161,1112.9990127766516 449.61971141697245,1104.9516668251608 395.43276867092874,866.0564073903882" stroke="#edf1ed" stroke-width="2.0" /><polygon fill="#191b28" points="413.77861760064866,1137.987955147204 237.87197167755113,1319.092386676189 188.12943940600712,1400.0 649.3352157173928,1400.0 694.1052100603279,1144.2754621970585 447.5834017464161,1112.9990127766516 413.77861760064866,1137.987955147204" stroke="#edf1ed" stroke-width="2.0" /><polygon fill="#191b28" points="753.7337461893387,498.74851898598325 722.1006583992511,480.99917066797195 676.0796542040557,778.0010760425732 690.0120939627074,789.4177688249085 721.3734846626519,798.6195237852739 749.1600419957218,779.6277200911121 829.4287737805248,684.2158626414881 753.7337461893387,498.74851898598325" stroke="#edf1ed" stroke-width="2.0" /><polygon fill="#191b28" points="484.59325220250383,355.80675665834207 544.6800793519195,242.81538877567635 588.8270912982329,66.59427626727208 570.9555896722662,0.0 0.0,0.0 0.0,511.61218716132663 484.59325220250383,355.80675665834207" stroke="#edf1ed" stroke-width="2.0" /><polygon fill="#191b28" points="452.2028282148893,682.6267657201558 0.0,629.6445181252369 0.0,670.3056168685373 235.328731477843,877.6698674911095 277.2563084101315,872.5370906659529 377.3845267695821,822.5054071823762 452.2028282148893,682.6267657201558" stroke="#edf1ed" stroke-width="2.0" /><polygon fill="#e93a25" points="556.9926366571395,937.3159583614827 395.43276867092874,866.0564073903882 449.61971141697245,1104.9516668251608 556.9926366571395,937.3159583614827" stroke="#edf1ed" stroke-width="2.0" /><polygon fill="#97cc96" points="753.7337461893387,498.74851898598325 829.4287737805248,684.2158626414881 1081.257260278681,495.5040638102836 753.7337461893387,498.74851898598325" stroke="#edf1ed" stroke-width="2.0" /><polygon fill="#e93a25" points="277.2563084101315,872.5370906659529 235.328731477843,877.6698674911095 212.33011731755727,948.4685289723518 237.87197167755113,1319.092386676189 413.77861760064866,1137.987955147204 277.2563084101315,872.5370906659529" stroke="#edf1ed" stroke-width="2.0" /><polygon fill="#e93a25" points="1189.5810789339553,438.9233022301027 1024.8627943768925,812.8307633885846 1036.6283083714102,855.2938059988489 1154.2654653342356,955.0410214044334 1400.0,866.0086110861212 1400.0,415.3383070599144 1189.5810789339553,438.9233022301027" stroke="#edf1ed" stroke-width="2.0" /><polygon fill="#97cc96" points="0.0,511.61218716132663 0.0,629.6445181252369 452.2028282148893,682.6267657201558 483.0126506242156,665.3261322865035 484.59325220250383,355.80675665834207 0.0,511.61218716132663" stroke="#edf1ed" stroke-width="2.0" /><polygon fill="#ffe9a3" points="237.87197167755113,1319.092386676189 212.33011731755727,948.4685289723518 0.0,958.4313828593968 0.0,1400.0 188.12943940600712,1400.0 237.87197167755113,1319.092386676189" stroke="#edf1ed" stroke-width="2.0" /><polygon fill="#e93a25" points="544.6800793519195,242.81538877567635 484.59325220250383,355.80675665834207 483.0126506242156,665.3261322865035 676.0796542040557,778.0010760425732 722.1006583992511,480.99917066797195 544.6800793519195,242.81538877567635" stroke="#edf1ed" stroke-width="2.0" /><polygon fill="#004564" points="1081.257260278681,495.5040638102836 829.4287737805248,684.2158626414881 749.1600419957218,779.6277200911121 1024.8627943768925,812.8307633885846 1189.5810789339553,438.9233022301027 1186.911982963672,438.6278145697823 1081.257260278681,495.5040638102836" stroke="#edf1ed" stroke-width="2.0" /></svg>